# Alias OBJ Model File
# Exported from SketchUp, (c) 2000-2012 Trimble Navigation Limited
# File units = inches

mtllib ColoredCube.mtl

g Mesh1 Model

usemtl Color_G05
v 76 76 -0
vt 76 76
vn 0 0 1
v 0 0 -0
vt 0 0
v 76 0 -0
vt 76 0
f 1/1/1 2/2/1 3/3/1

v 0 76 -0
vt 0 76
f 2/2/1 1/1/1 4/4/1

usemtl Color_E08
vn 0 1 -0
v 0 76 -84.9375
vt 0 84.9375
f 1/3/2 5/5/2 4/2/2

v 76 76 -84.9375
vt 76 84.9375
f 5/5/2 1/3/2 6/6/2

usemtl Color_E05
vn 1 0 -0
v 76 0 -84.9375
vt 84.9375 0
vt 84.9375 76
f 1/4/3 7/7/3 6/8/3

f 7/7/3 1/4/3 3/2/3

usemtl Color_B05
vn 0 -1 -0
vt -76 84.9375
vt -76 0
f 2/2/4 7/9/4 3/10/4

v 0 0 -84.9375
f 7/9/4 2/2/4 8/5/4

usemtl Color_C06
vn -1 0 -0
vt -84.9375 76
vt -84.9375 0
f 2/2/5 5/11/5 8/12/5

f 5/11/5 2/2/5 4/4/5

usemtl Color_A08
vn 0 0 -1
f 5/4/6 7/10/6 8/2/6

vt -76 76
f 7/10/6 5/4/6 6/13/6

