# Alias OBJ Model File
# Exported from SketchUp, (c) 2000-2012 Trimble Navigation Limited
# File units = meters

mtllib simplerect.mtl

g Mesh1 Model

usemtl FrontColor
v 1.5896 1.78049 0
vt -62.5825 70.0981
vn 0 0 -1
v 0 0.742268 0
vt 0.354985 29.2231
v 0 1.78049 0
vt 0.354985 70.0981
f 1/1/1 2/2/1 3/3/1

usemtl FrontColor
v 1.5896 0.742268 0
vt -62.5825 29.2231
f 2/2/1 1/1/1 4/4/1

vt 70.0981 -1.42109e-14
vn 1 0 0
v 1.5896 0.742268 0.752475
vt 29.2231 29.625
vt 29.2231 -1.42109e-14
f 1/5/2 5/6/2 4/7/2

v 1.5896 1.78049 0.752475
vt 70.0981 29.625
f 5/6/2 1/5/2 6/8/2

vt -62.5825 -1.42109e-14
vn 0 1 0
v 0 1.78049 0.752475
vt 0.354985 29.625
vt -62.5825 29.625
f 1/9/3 7/10/3 6/11/3

vt 0.354985 -1.42109e-14
f 7/10/3 1/9/3 3/12/3

vt -29.2231 -1.42109e-14
vn -1 0 0
vt -70.0981 29.625
vt -70.0981 -1.42109e-14
f 2/13/4 7/14/4 3/15/4

v 0 0.742268 0.752475
vt -29.2231 29.625
f 7/14/4 2/13/4 8/16/4

vt -0.354985 -1.42109e-14
vn 0 -1 0
vt 62.5825 29.625
vt -0.354985 29.625
f 2/17/5 5/18/5 8/19/5

vt 62.5825 -1.42109e-14
f 5/18/5 2/17/5 4/20/5

vt 62.5825 29.2231
vn 0 0 1
vt -0.354985 70.0981
vt -0.354985 29.2231
f 5/21/6 7/22/6 8/23/6

vt 62.5825 70.0981
f 7/22/6 5/21/6 6/24/6
