# Alias OBJ Model File
# Exported from SketchUp, (c) 2000-2012 Trimble Navigation Limited
# File units = meters

mtllib temple.mtl

g Mesh1 Model

usemtl Color_D05
v 0.592137 -3.59106 1.55258
vt 23.3125 -141.38
vn 0 0 1
v 0 -2.99892 1.55258
vt 0 -118.068
v 0 -3.59106 1.55258
vt 0 -141.38
f 1/1/1 2/2/1 3/3/1

v 0.592137 -2.99892 1.55258
vt 23.3125 -118.068
f 2/2/1 1/1/1 4/4/1

vt -141.38 61.125
vn 1 0 0
v 0.592137 -2.99892 -1.27794
vt -118.068 -50.3125
vt -118.068 61.125
f 1/5/2 5/6/2 4/7/2

v 0.592137 -3.59106 -1.27794
vt -141.38 -50.3125
f 5/6/2 1/5/2 6/8/2

vt 23.3125 61.125
vn 0 -1 0
v 0 -3.59106 -1.27794
vt 0 -50.3125
vt 23.3125 -50.3125
f 1/9/3 7/10/3 6/11/3

vt 0 61.125
f 7/10/3 1/9/3 3/12/3

vt 118.068 61.125
vn -1 0 0
vt 141.38 -50.3125
vt 141.38 61.125
f 2/13/4 7/14/4 3/15/4

v 0 -2.99892 -1.27794
vt 118.068 -50.3125
f 7/14/4 2/13/4 8/16/4

vn 0 1 0
vt -23.3125 -50.3125
f 2/12/5 5/17/5 8/10/5

vt -23.3125 61.125
f 5/17/5 2/12/5 4/18/5

vt -23.3125 -118.068
vn 0 0 -1
f 5/19/6 7/3/6 8/2/6

vt -23.3125 -141.38
f 7/3/6 5/19/6 6/20/6

g Mesh2 Model

v -1.28367 -2.77423 -1.27794
vn 0.809017 -0.587785 0
v -1.63172 -3.25328 1.55258
v -1.63172 -3.25328 -1.27794
f 9/6/7 10/5/7 11/8/7

v -1.28367 -2.77423 1.55258
f 10/5/7 9/6/7 12/7/7

vn 0.587785 0.809017 0
v -1.76272 -2.42618 1.55258
vt 1.42109e-14 61.125
f 9/17/8 13/21/8 12/18/8

v -1.76272 -2.42618 -1.27794
vt 1.42109e-14 -50.3125
f 13/21/8 9/17/8 14/22/8

vt 64.241 -128.082
vt 69.3985 -95.5188
vt 50.5383 -109.222
f 11/23/6 14/24/6 9/25/6

v -2.11077 -2.90523 -1.27794
vt 83.1012 -114.379
f 14/24/6 11/23/6 15/26/6

vn -0.587785 -0.809017 0
f 10/9/9 15/10/9 11/11/9

v -2.11077 -2.90523 1.55258
f 15/10/9 10/9/9 16/12/9

vt -64.241 -128.082
vt -69.3985 -95.5188
vt -83.1012 -114.379
f 10/27/1 13/28/1 16/29/1

vt -50.5383 -109.222
f 13/28/1 10/27/1 12/30/1

vn -0.809017 0.587785 0
f 13/13/10 15/14/10 16/15/10

f 15/14/10 13/13/10 14/16/10

g Mesh3 Model

v -3.23232 -1.67285 1.55258
vt -127.257 -65.8604
v -2.85214 -0.926717 1.55258
vt -112.289 -36.4849
v -3.4153 -1.1097 1.55258
vt -134.461 -43.6889
f 17/31/1 18/32/1 19/33/1

v -2.66916 -1.48987 1.55258
vt -105.085 -58.6564
f 18/32/1 17/31/1 20/34/1

v -3.23232 -1.67285 -1.27794
vn 0.309017 -0.951057 0
f 21/8/11 20/7/11 17/5/11

v -2.66916 -1.48987 -1.27794
f 20/7/11 21/8/11 22/6/11

vt 127.257 -65.8604
v -2.85214 -0.926717 -1.27794
vt 112.289 -36.4849
vt 105.085 -58.6564
f 21/35/6 23/36/6 22/37/6

v -3.4153 -1.1097 -1.27794
vt 134.461 -43.6889
f 23/36/6 21/35/6 24/38/6

vn -0.951057 -0.309017 0
vt 7.10543e-15 61.125
vt 7.10543e-15 -50.3125
f 21/11/12 19/39/12 24/40/12

f 19/39/12 21/11/12 17/9/12

vn -0.309017 0.951057 0
f 19/15/13 23/16/13 24/14/13

f 23/16/13 19/15/13 18/13/13

vn 0.951057 0.309017 0
f 20/18/14 23/10/14 18/12/14

f 23/10/14 20/18/14 22/17/14

g Mesh4 Model

v -3.4153 1.1097 1.55258
vn -0.951057 0.309017 0
v -3.59828 0.546542 -1.27794
v -3.59828 0.546542 1.55258
f 25/12/15 26/11/15 27/9/15

v -3.4153 1.1097 -1.27794
f 26/11/15 25/12/15 28/10/15

vn 0.309017 0.951057 0
v -2.85214 0.926717 -1.27794
f 25/15/16 29/16/16 28/14/16

v -2.85214 0.926717 1.55258
f 29/16/16 25/15/16 30/13/16

vt -134.461 43.6889
v -3.03512 0.363561 1.55258
vt -119.493 14.3134
vt -112.289 36.4849
f 25/41/1 31/42/1 30/43/1

vt -141.665 21.5174
f 31/42/1 25/41/1 27/44/1

vn -0.309017 -0.951057 0
f 26/8/17 31/7/17 27/5/17

v -3.03512 0.363561 -1.27794
f 31/7/17 26/8/17 32/6/17

vt 134.461 43.6889
vt 119.493 14.3134
vt 141.665 21.5174
f 28/45/6 32/46/6 26/47/6

vt 112.289 36.4849
f 32/46/6 28/45/6 29/48/6

vn 0.951057 -0.309017 0
f 29/40/18 31/18/18 32/17/18

f 31/18/18 29/40/18 30/39/18

g Mesh5 Model

v -2.58982 2.55718 1.55258
vn -0.587785 0.809017 0
v -2.11077 2.90523 -1.27794
v -2.58982 2.55718 -1.27794
f 33/9/19 34/10/19 35/11/19

v -2.11077 2.90523 1.55258
f 34/10/19 33/9/19 36/12/19

v -2.24177 2.07813 1.55258
vt -88.2587 81.816
vt -83.1012 114.379
vt -101.961 100.676
f 37/49/1 36/50/1 33/51/1

v -1.76272 2.42618 1.55258
vt -69.3985 95.5188
f 36/50/1 37/49/1 38/52/1

v -2.24177 2.07813 -1.27794
vn 0.587785 -0.809017 0
f 39/17/20 38/12/20 37/18/20

v -1.76272 2.42618 -1.27794
f 38/12/20 39/17/20 40/10/20

vt 88.2587 81.816
vt 83.1012 114.379
vt 69.3985 95.5188
f 39/53/6 34/54/6 40/55/6

vt 101.961 100.676
f 34/54/6 39/53/6 35/56/6

vn -0.809017 -0.587785 0
f 39/6/21 33/5/21 35/8/21

f 33/5/21 39/6/21 37/7/21

vn 0.809017 0.587785 0
f 34/14/22 38/13/22 40/16/22

f 38/13/22 34/14/22 36/15/22

g Mesh6 Model

v -0.592137 3.59106 1.55258
vn 7.65714e-16 1 0
v 2.74972e-15 3.59106 -1.27794
v -0.592137 3.59106 -1.27794
f 41/9/23 42/10/23 43/11/23

v 2.74972e-15 3.59106 1.55258
f 42/10/23 41/9/23 44/12/23

vt -23.3125 141.38
v 2.29631e-15 2.99892 1.55258
vt 9.04061e-14 118.068
vt 1.08257e-13 141.38
f 41/57/1 45/58/1 44/59/1

v -0.592137 2.99892 1.55258
vt -23.3125 118.068
f 45/58/1 41/57/1 46/60/1

vn -1 7.65714e-16 0
v -0.592137 2.99892 -1.27794
f 41/5/24 47/6/24 46/7/24

f 47/6/24 41/5/24 43/8/24

vt 23.3125 141.38
v 2.29631e-15 2.99892 -1.27794
vt -9.04061e-14 118.068
vt 23.3125 118.068
f 43/61/6 48/62/6 47/63/6

vt -1.08257e-13 141.38
f 48/62/6 43/61/6 42/64/6

vn 1 -7.65714e-16 0
f 42/14/25 45/13/25 48/16/25

f 45/13/25 42/14/25 44/15/25

vn -7.65714e-16 -1 0
f 45/12/26 47/17/26 48/10/26

f 47/17/26 45/12/26 46/18/26

g Mesh7 Model

v 0.13668 1.01571 0.830263
vt -5.38111 39.9885
v 0.131609 -1.20251 0.830263
vt -5.18146 -47.3429
v -0.974963 -0.0959369 0.830263
vt 38.3844 -3.77704
f 49/65/6 50/66/6 51/67/6

v 1.24325 -0.0908657 0.830263
vt -48.947 -3.57739
f 50/66/6 49/65/6 52/68/6

vt 24.4711 32.6875
vn 0.707107 0.707107 0
v 1.24325 -0.0908657 1.73672
vt -37.1403 68.375
vt -37.1403 32.6875
f 49/69/27 53/70/27 52/71/27

v 0.13668 1.01571 1.73672
vt 24.4711 68.375
f 53/70/27 49/69/27 54/72/27

vt -32.0811 32.6875
vn -0.707107 0.707107 0
v -0.974963 -0.0959369 1.73672
vt 29.8126 68.375
vt -32.0811 68.375
f 49/73/28 55/74/28 54/75/28

vt 29.8126 32.6875
f 55/74/28 49/73/28 51/76/28

vt 37.1403 32.6875
vn -0.707107 -0.707107 0
vt -24.4711 68.375
vt -24.4711 32.6875
f 50/77/29 55/78/29 51/79/29

v 0.131609 -1.20251 1.73672
vt 37.1403 68.375
f 55/78/29 50/77/29 56/80/29

vt -29.8126 32.6875
vn 0.707107 -0.707107 0
vt 32.0811 68.375
vt -29.8126 68.375
f 50/81/30 53/82/30 56/83/30

vt 32.0811 32.6875
f 53/82/30 50/81/30 52/84/30

vt 5.38111 39.9885
vt 5.18146 -47.3429
vt 48.947 -3.57739
f 54/85/1 56/86/1 53/87/1

vt -38.3844 -3.77704
f 56/86/1 54/85/1 55/88/1

g Mesh8 Model

v 1.17992 0.402135 -0.667925
vt 32.0811 -26.2962
vn 0.927184 -0.374607 0
v 0.591005 -1.05549 0.238538
vt -29.8126 9.39126
v 0.591005 -1.05549 -0.667925
vt -29.8126 -26.2962
f 57/89/31 58/90/31 59/91/31

v 1.17992 0.402135 0.238538
vt 32.0811 9.39126
f 58/90/31 57/89/31 60/92/31

vt -37.1403 -26.2962
vn 0.374607 0.927184 0
v -0.271053 0.988368 0.238538
vt 24.4711 9.39126
vt -37.1403 9.39126
f 57/93/32 61/94/32 60/95/32

v -0.271053 0.988368 -0.667925
vt 24.4711 -26.2962
f 61/94/32 57/93/32 62/96/32

vt -23.2679 -41.5548
vt 10.6714 38.9121
vt -46.4537 15.8321
f 59/97/6 62/98/6 57/99/6

v -0.859973 -0.469259 -0.667925
vt 33.8572 -18.4748
f 62/98/6 59/97/6 63/100/6

vt 37.1403 9.39126
vn -0.374607 -0.927184 0
vt -24.4711 -26.2962
vt 37.1403 -26.2962
f 58/101/33 63/102/33 59/103/33

v -0.859973 -0.469259 0.238538
vt -24.4711 9.39126
f 63/102/33 58/101/33 64/104/33

vt 23.2679 -41.5548
vt -10.6714 38.9121
vt -33.8572 -18.4748
f 58/105/1 61/106/1 64/107/1

vt 46.4537 15.8321
f 61/106/1 58/105/1 60/108/1

vt -32.0811 9.39126
vn -0.927184 0.374607 0
vt 29.8126 -26.2962
vt 29.8126 9.39126
f 61/109/34 63/110/34 64/111/34

vt -32.0811 -26.2962
f 63/110/34 61/109/34 62/112/34

g Mesh9 Model

v 0.626222 0.811288 -2.12366
vt -24.6544 31.9405
v -0.487278 -1.10721 -2.12366
vt 19.1842 -43.5909
v -0.892312 0.404398 -2.12366
vt 35.1304 15.9212
f 65/113/6 66/114/6 67/115/6

v 1.03126 -0.700318 -2.12366
vt -40.6006 -27.5716
f 66/114/6 65/113/6 68/116/6

vt 24.4711 -83.6087
vn 0.965926 0.258819 0
v 1.03126 -0.700318 -1.2172
vt -37.1403 -47.9212
vt -37.1403 -83.6087
f 65/117/35 69/118/35 68/119/35

v 0.626222 0.811288 -1.2172
vt 24.4711 -47.9212
f 69/118/35 65/117/35 70/120/35

vt -32.0811 -83.6087
vn -0.258819 0.965926 0
v -0.892312 0.404398 -1.2172
vt 29.8126 -47.9212
vt -32.0811 -47.9212
f 65/121/36 71/122/36 70/123/36

vt 29.8126 -83.6087
f 71/122/36 65/121/36 67/124/36

vt 37.1403 -83.6087
vn -0.965926 -0.258819 0
vt -24.4711 -47.9212
vt -24.4711 -83.6087
f 66/125/37 71/126/37 67/127/37

v -0.487278 -1.10721 -1.2172
vt 37.1403 -47.9212
f 71/126/37 66/125/37 72/128/37

vt -29.8126 -83.6087
vn 0.258819 -0.965926 0
vt 32.0811 -47.9212
vt -29.8126 -47.9212
f 66/129/38 69/130/38 72/131/38

vt 32.0811 -83.6087
f 69/130/38 66/129/38 68/132/38

vt 24.6544 31.9405
vt -19.1842 -43.5909
vt 40.6006 -27.5716
f 70/133/1 72/134/1 69/135/1

vt -35.1304 15.9212
f 72/134/1 70/133/1 71/136/1

